<svg width="35" height="35" viewBox="0 0 35 35" fill="none" xmlns="http://www.w3.org/2000/svg">
<path fill-rule="evenodd" clip-rule="evenodd" d="M4 0C1.79086 0 0 1.79086 0 4V31C0 33.2091 1.79086 35 4 35H31C33.2091 35 35 33.2091 35 31V4C35 1.79086 33.2091 0 31 0H4ZM4.25581 11.3955C3.70353 11.3955 3.25581 11.8432 3.25581 12.3955V14.7651C3.25581 15.3174 3.70353 15.7651 4.25581 15.7651H6.62546C7.17774 15.7651 7.62546 15.3174 7.62546 14.7651V12.3955C7.62546 11.8432 7.17774 11.3955 6.62546 11.3955H4.25581ZM9.08182 12.3954C9.08182 11.8431 9.52953 11.3954 10.0818 11.3954H12.4515C13.0037 11.3954 13.4515 11.8431 13.4515 12.3954V14.7651C13.4515 15.3174 13.0037 15.7651 12.4515 15.7651H10.0818C9.52953 15.7651 9.08182 15.3174 9.08182 14.7651V12.3954ZM15.9083 11.3954C15.356 11.3954 14.9083 11.8431 14.9083 12.3954V14.7651C14.9083 15.3174 15.356 15.7651 15.9083 15.7651H18.2779C18.8302 15.7651 19.2779 15.3174 19.2779 14.7651V12.3954C19.2779 11.8431 18.8302 11.3954 18.2779 11.3954H15.9083ZM20.7343 12.3954C20.7343 11.8431 21.182 11.3954 21.7343 11.3954H24.104C24.6562 11.3954 25.104 11.8431 25.104 12.3954V14.7651C25.104 15.3174 24.6562 15.7651 24.104 15.7651H21.7343C21.182 15.7651 20.7343 15.3174 20.7343 14.7651V12.3954ZM27.5604 11.3954C27.0081 11.3954 26.5604 11.8431 26.5604 12.3954V14.7651C26.5604 15.3174 27.0081 15.7651 27.5604 15.7651H29.93C30.4823 15.7651 30.93 15.3174 30.93 14.7651V12.3954C30.93 11.8431 30.4823 11.3954 29.93 11.3954H27.5604ZM3.25581 18.907C3.25581 18.3547 3.70353 17.907 4.25581 17.907H6.62546C7.17774 17.907 7.62546 18.3547 7.62546 18.907V21.2766C7.62546 21.8289 7.17774 22.2766 6.62546 22.2766H4.25581C3.70353 22.2766 3.25581 21.8289 3.25581 21.2766V18.907ZM10.0818 17.907C9.52953 17.907 9.08182 18.3547 9.08182 18.907V21.2766C9.08182 21.8289 9.52953 22.2766 10.0818 22.2766H12.4515C13.0037 22.2766 13.4515 21.8289 13.4515 21.2766V18.907C13.4515 18.3547 13.0037 17.907 12.4515 17.907H10.0818ZM14.9083 18.907C14.9083 18.3547 15.356 17.907 15.9083 17.907H18.2779C18.8302 17.907 19.2779 18.3547 19.2779 18.907V21.2766C19.2779 21.8289 18.8302 22.2766 18.2779 22.2766H15.9083C15.356 22.2766 14.9083 21.8289 14.9083 21.2766V18.907ZM21.7343 17.907C21.182 17.907 20.7343 18.3547 20.7343 18.907V21.2766C20.7343 21.8289 21.182 22.2766 21.7343 22.2766H24.104C24.6562 22.2766 25.104 21.8289 25.104 21.2766V18.907C25.104 18.3547 24.6562 17.907 24.104 17.907H21.7343ZM26.5604 18.907C26.5604 18.3547 27.0081 17.907 27.5604 17.907H29.93C30.4823 17.907 30.93 18.3547 30.93 18.907V21.2766C30.93 21.8289 30.4823 22.2766 29.93 22.2766H27.5604C27.0081 22.2766 26.5604 21.8289 26.5604 21.2766V18.907ZM4.25581 24.4186C3.70353 24.4186 3.25581 24.8663 3.25581 25.4186V27.7882C3.25581 28.3405 3.70353 28.7882 4.25581 28.7882H6.62546C7.17774 28.7882 7.62546 28.3405 7.62546 27.7882V25.4186C7.62546 24.8663 7.17774 24.4186 6.62546 24.4186H4.25581ZM9.08182 25.4185C9.08182 24.8662 9.52953 24.4185 10.0818 24.4185H12.4515C13.0037 24.4185 13.4515 24.8662 13.4515 25.4185V27.7882C13.4515 28.3404 13.0037 28.7882 12.4515 28.7882H10.0818C9.52953 28.7882 9.08182 28.3404 9.08182 27.7882V25.4185ZM15.9083 24.4185C15.356 24.4185 14.9083 24.8662 14.9083 25.4185V27.7882C14.9083 28.3404 15.356 28.7882 15.9083 28.7882H18.2779C18.8302 28.7882 19.2779 28.3404 19.2779 27.7882V25.4185C19.2779 24.8662 18.8302 24.4185 18.2779 24.4185H15.9083ZM20.7343 25.4185C20.7343 24.8662 21.182 24.4185 21.7343 24.4185H24.104C24.6562 24.4185 25.104 24.8662 25.104 25.4185V27.7882C25.104 28.3404 24.6562 28.7882 24.104 28.7882H21.7343C21.182 28.7882 20.7343 28.3404 20.7343 27.7882V25.4185ZM27.5604 24.4185C27.0081 24.4185 26.5604 24.8662 26.5604 25.4185V27.7882C26.5604 28.3404 27.0081 28.7882 27.5604 28.7882H29.93C30.4823 28.7882 30.93 28.3404 30.93 27.7882V25.4185C30.93 24.8662 30.4823 24.4185 29.93 24.4185H27.5604Z" fill="#909090"/>
</svg>
