<svg width="46" height="36" viewBox="0 0 46 36" fill="none" xmlns="http://www.w3.org/2000/svg">
<path d="M21 36C21 29.3708 26.5946 24 33.5 24C40.4054 24 46 29.3708 46 36" fill="#909090"/>
<path d="M16 17C20.4183 17 24 13.1944 24 8.5C24 3.80558 20.4183 0 16 0C11.5817 0 8 3.80558 8 8.5C8 13.1944 11.5817 17 16 17Z" fill="#909090"/>
<path d="M33 19C36.3137 19 39 16.0899 39 12.5C39 8.91015 36.3137 6 33 6C29.6863 6 27 8.91015 27 12.5C27 16.0899 29.6863 19 33 19Z" fill="#909090"/>
<path d="M0 36C0 27.1611 7.38491 20 16.5 20C25.6151 20 33 27.1611 33 36" fill="#909090"/>
</svg>
